<svg xmlns="http://www.w3.org/2000/svg" xmlns:xlink="http://www.w3.org/1999/xlink" viewBox="0 0 48 48"><defs><style>.cls-1{isolation:isolate;}.cls-2{fill:url(#linear-gradient);}.cls-3{opacity:0.15;mix-blend-mode:multiply;}.cls-4{fill:#3498db;}.cls-5{fill:#2980b9;}.cls-6{fill:#f39c12;}.cls-7{fill:#f1c40f;}</style><linearGradient id="linear-gradient" x1="24" x2="24" y2="48" gradientUnits="userSpaceOnUse"><stop offset="0" stop-color="#e74d3c"/><stop offset="1" stop-color="#c0392b"/></linearGradient></defs><title>icon_awards</title><g class="cls-1"><g id="Layer_1" data-name="Layer 1"><rect class="cls-2" width="48" height="48" rx="12" ry="12"/><g class="cls-3"><polygon points="18.32 24.2 25.84 26.94 19.68 43.85 17.29 38.73 12.16 41.12 18.32 24.2"/><polygon points="17.29 38.73 19.68 43.85 25.84 26.94 22.08 25.57 17.29 38.73"/></g><polygon class="cls-4" points="18.32 23.2 25.84 25.94 19.68 42.85 17.29 37.73 12.16 40.12 18.32 23.2"/><polygon class="cls-5" points="17.29 37.73 19.68 42.85 25.84 25.94 22.08 24.57 17.29 37.73"/><g class="cls-3"><polygon points="22.16 26.94 29.68 24.2 35.84 41.12 30.71 38.73 28.32 43.85 22.16 26.94"/><polygon points="30.71 38.73 35.84 41.12 29.68 24.2 25.92 25.57 30.71 38.73"/></g><polygon class="cls-4" points="22.16 25.94 29.68 23.2 35.84 40.12 30.71 37.73 28.32 42.85 22.16 25.94"/><polygon class="cls-5" points="30.71 37.73 35.84 40.12 29.68 23.2 25.92 24.57 30.71 37.73"/><g class="cls-3"><polygon points="34.88 16.86 33.77 19.03 34.88 21.19 33.03 22.77 33.23 25.19 30.91 25.94 30.16 28.25 27.74 28.05 26.16 29.91 24 28.8 21.84 29.91 20.26 28.05 17.84 28.25 17.09 25.94 14.78 25.19 14.97 22.77 13.12 21.19 14.23 19.03 13.12 16.86 14.97 15.29 14.78 12.86 17.09 12.12 17.84 9.8 20.26 10 21.84 8.15 24 9.26 26.16 8.15 27.74 10 30.16 9.8 30.91 12.12 33.23 12.86 33.03 15.29 34.88 16.86"/><circle cx="24" cy="19.03" r="8"/></g><polygon class="cls-6" points="34.88 15.86 33.77 18.03 34.88 20.19 33.03 21.77 33.23 24.19 30.91 24.94 30.16 27.25 27.74 27.05 26.16 28.91 24 27.8 21.84 28.91 20.26 27.05 17.84 27.25 17.09 24.94 14.78 24.19 14.97 21.77 13.12 20.19 14.23 18.03 13.12 15.86 14.97 14.29 14.78 11.86 17.09 11.12 17.84 8.8 20.26 9 21.84 7.15 24 8.26 26.16 7.15 27.74 9 30.16 8.8 30.91 11.12 33.23 11.86 33.03 14.29 34.88 15.86"/><circle class="cls-7" cx="24" cy="18.03" r="8"/></g></g></svg>