<svg xmlns="http://www.w3.org/2000/svg" xmlns:xlink="http://www.w3.org/1999/xlink" viewBox="0 0 48 48"><defs><style>.cls-1{isolation:isolate;}.cls-2{fill:url(#linear-gradient);}.cls-3{opacity:0.15;mix-blend-mode:multiply;}.cls-4{fill:#ecf0f1;}.cls-5{fill:#16a084;}.cls-6{fill:#3498db;}.cls-7{fill:#9c59b6;}.cls-8{fill:#c0392b;}.cls-9{fill:#e67d22;}.cls-10{fill:#f1c40f;}</style><linearGradient id="linear-gradient" x1="24" x2="24" y2="48" gradientUnits="userSpaceOnUse"><stop offset="0" stop-color="#34495e"/><stop offset="1" stop-color="#2c3e50"/></linearGradient></defs><title>icon_gallery</title><g class="cls-1"><g id="Layer_1" data-name="Layer 1"><rect class="cls-2" width="48" height="48" rx="12" ry="12"/><g class="cls-3"><rect x="18.5" y="17.5" width="23" height="20" transform="translate(-2.29 52.27) rotate(-80)"/><rect x="21.26" y="17.02" width="18" height="18" transform="translate(-0.62 51.3) rotate(-80)"/><polygon points="31.54 17.11 21.96 33.7 19.83 33.32 22.86 16.14 23.16 15.63 31.54 17.11"/><polygon points="39.42 18.5 29.84 35.09 21.46 33.61 31.04 17.02 39.42 18.5"/><polygon points="38.91 18.41 29.34 35 29.84 35.09 37.56 36.45 40.69 18.72 39.42 18.5 38.91 18.41"/></g><rect class="cls-4" x="18.5" y="16.5" width="23" height="20" transform="translate(-1.31 51.44) rotate(-80)"/><rect class="cls-4" x="21.26" y="16.02" width="18" height="18" transform="translate(0.36 50.48) rotate(-80)"/><polygon class="cls-5" points="31.54 16.11 21.96 32.7 19.83 32.32 22.86 15.14 23.16 14.63 31.54 16.11"/><polygon class="cls-6" points="39.42 17.5 29.84 34.09 21.46 32.61 31.04 16.02 39.42 17.5"/><polygon class="cls-7" points="38.91 17.41 29.34 34 29.84 34.09 37.56 35.45 40.69 17.72 39.42 17.5 38.91 17.41"/><g class="cls-3"><rect x="8" y="11" width="20" height="23" transform="translate(-3.63 3.47) rotate(-10)"/><rect x="8.74" y="12.02" width="18" height="18" transform="translate(-3.38 3.4) rotate(-10)"/><polygon points="15.89 12.21 12.57 31.07 10.44 31.45 7.41 14.26 7.51 13.69 15.89 12.21"/><polygon points="23.77 10.82 20.45 29.68 12.06 31.16 15.39 12.3 23.77 10.82"/><polygon points="23.27 10.91 19.94 29.77 20.45 29.68 28.17 28.32 25.04 10.6 23.77 10.82 23.27 10.91"/></g><rect class="cls-4" x="8" y="10" width="20" height="23" transform="translate(-3.46 3.45) rotate(-10)"/><rect class="cls-4" x="8.74" y="11.02" width="18" height="18" transform="translate(-3.21 3.38) rotate(-10)"/><polygon class="cls-8" points="15.89 11.21 12.57 30.07 10.44 30.45 7.41 13.26 7.51 12.69 15.89 11.21"/><polygon class="cls-9" points="23.77 9.82 20.45 28.68 12.06 30.16 15.39 11.3 23.77 9.82"/><polygon class="cls-10" points="23.27 9.91 19.94 28.77 20.45 28.68 28.17 27.32 25.04 9.6 23.77 9.82 23.27 9.91"/></g></g></svg>