<svg xmlns="http://www.w3.org/2000/svg" xmlns:xlink="http://www.w3.org/1999/xlink" viewBox="0 0 48 48"><defs><style>.cls-1{isolation:isolate;}.cls-2{fill:url(#linear-gradient);}.cls-3{opacity:0.15;mix-blend-mode:multiply;}.cls-4{fill:#95a5a6;}.cls-5{fill:#e74d3c;}.cls-6{fill:#c0392b;}.cls-7{fill:#ecf0f1;}.cls-8{fill:#bdc3c7;}</style><linearGradient id="linear-gradient" x1="24" x2="24" y2="48" gradientUnits="userSpaceOnUse"><stop offset="0" stop-color="#1abc9c"/><stop offset="1" stop-color="#16a084"/></linearGradient></defs><title>icon_keyboard</title><g class="cls-1"><g id="Layer_1" data-name="Layer 1"><rect class="cls-2" width="48" height="48" rx="12" ry="12"/><g class="cls-3"><polyline points="21 34 27 34 27 38 26 40 22 40 21 38"/><polygon points="21 16 27 16 27 11 25 10 23 10 21 11 21 16"/><polygon points="23.5 10 24.5 10 25.5 11 25.5 16 22.5 16 22.5 11.04 23.5 10"/><path d="M38,34"/><polygon points="12 25 36 25 35 34 13 34 12 25"/><polygon points="12 25 18 16 34 16 36 25 12 25"/><polygon points="18 16 19 16 19 23 13.33 23 18 16"/><polyline points="29 16 34 16 35.56 23 29 23"/><rect x="20.5" y="25" width="7" height="8"/><rect x="14" y="25" width="4" height="9"/><rect x="30" y="25" width="4" height="9"/></g><polyline class="cls-4" points="21 33 27 33 27 37 26 39 22 39 21 37"/><polygon class="cls-5" points="21 15 27 15 27 10 25 9 23 9 21 10 21 15"/><polygon class="cls-6" points="23.5 9 24.5 9 25.5 10 25.5 15 22.5 15 22.5 10.04 23.5 9"/><path class="cls-7" d="M38,33"/><polygon class="cls-8" points="12 24 36 24 35 33 13 33 12 24"/><polygon class="cls-7" points="12 24 18 15 34 15 36 24 12 24"/><polygon class="cls-8" points="18 15 19 15 19 22 13.33 22 18 15"/><polyline class="cls-8" points="29 15 34 15 35.56 22 29 22"/><rect class="cls-4" x="20.5" y="24" width="7" height="8"/><rect class="cls-4" x="14" y="24" width="4" height="9"/><rect class="cls-4" x="30" y="24" width="4" height="9"/></g></g></svg>