<svg xmlns="http://www.w3.org/2000/svg" xmlns:xlink="http://www.w3.org/1999/xlink" viewBox="0 0 48 48"><defs><style>.cls-1{isolation:isolate;}.cls-2{fill:url(#linear-gradient);}.cls-3{opacity:0.15;mix-blend-mode:multiply;}.cls-4{fill:#ecf0f1;}</style><linearGradient id="linear-gradient" x1="24" x2="24" y2="48" gradientUnits="userSpaceOnUse"><stop offset="0" stop-color="#95a5a6"/><stop offset="1" stop-color="#7d8c8d"/></linearGradient></defs><title>icon_settings</title><g class="cls-1"><g id="Layer_1" data-name="Layer 1"><rect class="cls-2" width="48" height="48" rx="12" ry="12"/><g class="cls-3"><path d="M34.06,28H39V22H34.06a10,10,0,0,0-.83-2l3.5-3.5-4.24-4.24L29,15.77h0a10,10,0,0,0-2-.83V10H21v4.94a10,10,0,0,0-2,.83h0l-3.49-3.5-4.24,4.24,3.5,3.5a10,10,0,0,0-.83,2H9v6h4.94a10,10,0,0,0,.83,2h0l-3.5,3.49,4.24,4.24,3.5-3.5a10,10,0,0,0,2,.83V40h6V35.06a10,10,0,0,0,2-.83l3.5,3.5,4.24-4.24L33.23,30h0A10,10,0,0,0,34.06,28ZM24,30.5A5.5,5.5,0,1,1,29.5,25,5.5,5.5,0,0,1,24,30.5Z"/></g><path class="cls-4" d="M34.06,27H39V21H34.06a10,10,0,0,0-.83-2l3.5-3.5-4.24-4.24L29,14.77h0a10,10,0,0,0-2-.83V9H21v4.94a10,10,0,0,0-2,.83h0l-3.49-3.5-4.24,4.24,3.5,3.5a10,10,0,0,0-.83,2H9v6h4.94a10,10,0,0,0,.83,2h0l-3.5,3.49,4.24,4.24,3.5-3.5a10,10,0,0,0,2,.83V39h6V34.06a10,10,0,0,0,2-.83l3.5,3.5,4.24-4.24L33.23,29h0A10,10,0,0,0,34.06,27ZM24,29.5A5.5,5.5,0,1,1,29.5,24,5.5,5.5,0,0,1,24,29.5Z"/></g></g></svg>